<?xml version="1.0" encoding="UTF-8" standalone="no"?>
<!-- Created with Inkscape (http://www.inkscape.org/) -->

<svg
   width="48"
   height="48"
   viewBox="0 0 48 48"
   version="1.1"
   id="svg5"
   xmlns:xlink="http://www.w3.org/1999/xlink"
   xmlns="http://www.w3.org/2000/svg"
   xmlns:svg="http://www.w3.org/2000/svg">
  <defs
     id="defs2">
    <linearGradient
       id="linearGradient854">
      <stop
         style="stop-color:#99371a;stop-opacity:1;"
         offset="0"
         id="stop850" />
      <stop
         style="stop-color:#99371a;stop-opacity:0;"
         offset="1"
         id="stop852" />
    </linearGradient>
    <linearGradient
       xlink:href="#linearGradient854"
       id="linearGradient856"
       x1="2.4367244"
       y1="7.1521115"
       x2="52.343246"
       y2="44.23764"
       gradientUnits="userSpaceOnUse" />
  </defs>
  <g
     id="layer1">
    <ellipse
       style="fill:url(#linearGradient856);stroke:#000000;fill-opacity:1"
       id="path788"
       cx="24.290695"
       cy="24.449863"
       rx="19.152025"
       ry="19.787779" />
    <path
       style="fill:#99371a;stroke:#000000"
       id="path994"
       d="m 10.705046,17.814313 c 0.257028,-0.153091 0.52124,-0.294719 0.771083,-0.459275 0.08145,-0.05364 0.28236,-0.329011 0.31443,-0.37167 0.105754,-0.140672 0.206384,-0.28519 0.313761,-0.424628 0.366408,-0.475809 0.500739,-0.623949 0.895477,-1.091811 0.667781,-0.779016 1.37637,-1.521881 2.103561,-2.245342 0.104745,-0.0874 0.188315,-0.198256 0.292538,-0.286319 0.03717,-0.03141 0.161024,-0.109187 0.119293,-0.08415 -1.13803,0.682692 -0.702113,0.276833 -0.465881,0.362781 0.03607,0.01312 0.06578,0.03957 0.09867,0.05936 0.441806,0.496884 0.816925,1.051706 1.19871,1.59528 0.436859,0.661956 0.923594,1.288825 1.371157,1.943278 0.09212,0.134711 0.723989,1.096054 0.823867,1.247812 0.427093,0.666366 0.224856,0.349139 0.607146,0.951406 0,0 0.623771,-0.365132 0.623771,-0.365132 v 0 C 19.368317,18.056612 19.58072,18.367947 19.13599,17.7115 c -0.71938,-1.071633 -1.423558,-2.153519 -2.162998,-3.211601 -0.175793,-0.255558 -0.353148,-0.51004 -0.528582,-0.765845 -0.205232,-0.299253 -0.400022,-0.606939 -0.638201,-0.881927 -0.02603,-0.01911 -0.184186,-0.150132 -0.234704,-0.129488 -0.57217,0.233828 -0.801807,0.39774 -1.168121,0.789441 -0.698719,0.722094 -1.380031,1.461216 -2.035615,2.222808 -0.495805,0.583842 -0.452872,0.525853 -0.922268,1.10684 -0.112757,0.139563 -0.393753,0.506571 -0.551805,0.672246 -0.04478,0.04694 -0.20452,0.155575 -0.144974,0.129834 0.202508,-0.08754 0.386946,-0.212045 0.58042,-0.318068 0,0 -0.624096,0.488573 -0.624096,0.488573 z" />
    <path
       style="fill:#99371a;stroke:#000000"
       id="path996"
       d="m 28.687374,18.652247 c 0.07243,-0.141539 0.142414,-0.284359 0.217295,-0.424618 0.192855,-0.361235 0.651805,-1.182214 0.832696,-1.508875 0.450273,-0.813125 0.902734,-1.624268 1.365221,-2.430518 0.02249,-0.03923 0.539857,-0.953606 0.621062,-1.055755 0.07822,-0.09839 0.213295,-0.353663 0.283075,-0.249118 0.08626,0.129233 -0.239766,0.308159 -0.156226,0.439165 0.141748,0.222289 0.470382,0.241737 0.686606,0.392575 0.313897,0.218974 0.599569,0.475859 0.899354,0.713788 0.371292,0.338222 0.751621,0.66678 1.113875,1.014664 0.42551,0.408631 0.837143,0.831548 1.248718,1.254211 1.5246,1.56567 2.984351,3.192221 4.426331,4.833671 0,0 0.50801,-0.3078 0.50801,-0.3078 v 0 c -1.07259,-1.153254 -2.144405,-2.307389 -3.219867,-3.457952 -0.332585,-0.35581 -2.115347,-2.250912 -2.478833,-2.620851 -0.34955,-0.355757 -0.712637,-0.697955 -1.068955,-1.046933 -0.03633,-0.03177 -1.254369,-1.163528 -1.521147,-1.190532 -0.554587,-0.05614 -1.072454,0.09075 -1.379144,0.517531 -0.09977,0.138843 -0.170085,0.296656 -0.253237,0.446047 -0.109398,0.196547 -0.216265,0.394493 -0.324398,0.591739 -0.448005,0.807869 -0.891491,1.618591 -1.346957,2.422282 -0.618949,1.092165 -0.317384,0.543975 -0.897375,1.539239 -0.08578,0.147202 -0.168502,0.296167 -0.252753,0.44425 0,0 0.696649,-0.31621 0.696649,-0.31621 z" />
    <path
       style="fill:#99371a;stroke:#000000"
       id="path998"
       d="m 12.65833,29.275846 c 1.266307,0.824273 2.500538,1.69743 3.795376,2.477738 0.341635,0.205879 0.691099,0.398476 1.036649,0.597714 0.685063,0.31167 1.45678,0.698956 2.19135,0.892341 0.396386,0.104353 0.802481,0.179651 1.210949,0.213787 0.84538,0.07065 1.920478,-0.02087 2.754321,-0.143188 0.433952,-0.06366 0.861441,-0.165484 1.292161,-0.248226 1.029491,-0.274007 2.053109,-0.594614 2.994837,-1.102099 0.441344,-0.237834 0.874018,-0.491883 1.30154,-0.75375 0.41258,-0.252716 0.885312,-0.613703 1.275334,-0.901276 1.033492,-0.815992 2.002274,-1.708651 3.004186,-2.562056 0.230751,-0.190581 0.467405,-0.372469 0.720611,-0.53215 0.05897,-0.03719 0.239273,-0.14317 0.178817,-0.108458 -0.640508,0.367762 -0.671346,0.37961 -0.384177,0.236015 0,0 0.608298,-0.485328 0.608298,-0.485328 v 0 c -0.650084,0.30511 -1.256889,0.698053 -1.801174,1.164839 -0.977763,0.857388 -1.936872,1.737497 -2.961977,2.539172 -0.733906,0.539244 -0.492927,0.37492 -1.265103,0.889673 -0.05381,0.03587 -0.106061,0.07475 -0.163587,0.104292 -0.28099,0.1443 -0.56084,0.292069 -0.851059,0.41677 -0.839658,0.360784 -1.287457,0.46557 -2.180339,0.734098 -0.432614,0.08634 -0.861676,0.192914 -1.29784,0.259019 -0.837006,0.126857 -1.874226,0.213666 -2.723457,0.141568 -1.23755,-0.105066 -2.283716,-0.561417 -3.387093,-1.090765 -0.346685,-0.197421 -0.698585,-0.385952 -1.040054,-0.592264 -1.272888,-0.769064 -2.481452,-1.644148 -3.649786,-2.562524 0,0 -0.658783,0.415058 -0.658783,0.415058 z" />
    <path
       style="fill:#99371a;stroke:#000000"
       id="path1004"
       d="m 14.48709,31.368247 c 0.0087,0.240398 0.02118,0.506962 0.01455,0.743933 -0.0092,0.329807 -0.05866,0.927361 -0.08535,1.242078 -0.02917,0.344004 -0.09718,1.070405 -0.129298,1.416903 -0.08726,0.962943 -0.157485,1.927211 -0.205046,2.892903 -0.0013,0.177104 -0.02158,0.354302 -0.02353,0.531362 -2.36e-4,0.02147 -0.01589,0.07187 0.0042,0.06429 0.760257,-0.286848 0.640918,-0.119143 0.826962,-0.480885 0.582428,-0.912579 1.141203,-1.839359 1.737937,-2.742803 0.425021,-0.601425 0.824337,-1.226697 1.314792,-1.778136 0.218008,-0.234992 0.454714,-0.451394 0.688722,-0.670105 0.02282,-0.02416 0.04563,-0.04831 0.06845,-0.07246 0,0 -0.725528,0.301943 -0.725528,0.301943 v 0 c -0.0225,0.0227 -0.045,0.0454 -0.06751,0.0681 -0.228655,0.216884 -0.458267,0.433381 -0.667367,0.669599 -0.467689,0.551056 -0.849599,1.168003 -1.256414,1.763828 -0.600913,0.924981 -1.169789,1.871288 -1.807315,2.771935 -0.236417,0.269442 -0.230738,0.233666 0.589249,-0.197489 0.01567,-0.0082 -0.0063,-0.03492 -0.0074,-0.05259 -0.0043,-0.06681 -0.0034,-0.237301 -0.0032,-0.286447 2.88e-4,-0.07687 0.0012,-0.15373 0.0017,-0.230595 0.0172,-0.955116 0.06878,-1.909411 0.150988,-2.861163 0.09384,-1.049583 0.02949,-0.352891 0.133258,-1.419119 0.02946,-0.302671 0.09367,-0.943096 0.113479,-1.262116 0.0011,-0.01693 0.02389,-0.671253 0.02722,-0.766363 0,0 -0.693595,0.353404 -0.693595,0.353404 z" />
    <path
       style="fill:#99371a;stroke:#000000"
       id="path1006"
       d="m 25.914855,32.896108 c 0.07196,0.09558 0.139343,0.194775 0.21588,0.286726 0.309009,0.371246 0.752004,0.844835 1.075032,1.181775 0.694021,0.723911 1.417697,1.415491 2.145903,2.104568 0.54103,0.468019 1.035886,0.99392 1.604973,1.429899 0.0254,0.01946 0.387028,0.329653 0.529001,0.23159 0.272463,-0.188194 0.48727,-0.448531 0.730905,-0.672796 -0.0137,-0.169049 -0.01938,-0.338941 -0.04111,-0.507145 -0.06556,-0.507413 -0.149473,-0.834644 -0.271132,-1.339003 -0.162275,-0.67274 -0.341362,-1.341261 -0.507111,-2.013152 -0.186886,-0.767902 -0.375329,-1.535911 -0.539278,-2.309144 -0.06246,-0.284547 -0.132138,-0.567694 -0.171349,-0.856572 -0.02459,-0.253158 -0.04179,-0.50878 -0.02714,-0.763003 0.01049,-0.07 0.0133,-0.128907 0.0437,-0.193379 0.0074,-0.01573 0.01716,-0.03215 0.03202,-0.04118 0.0094,-0.0057 0.04249,-0.0037 0.03294,0.0017 -0.226622,0.129457 -0.45902,0.24853 -0.68853,0.372794 0,0 0.674363,-0.425023 0.674363,-0.425023 v 0 c -0.665397,0.313119 -0.740229,0.139329 -0.793574,0.637556 -0.0071,0.258551 0.0081,0.517498 0.03547,0.774608 0.04135,0.289586 0.113261,0.571823 0.19044,0.853849 0.185434,0.76381 0.394675,1.521756 0.593199,2.282199 0.175336,0.667194 0.364224,1.332036 0.518554,2.004534 0.100758,0.439052 0.200395,0.89306 0.23458,1.344206 0.01261,0.166381 0.0012,0.333715 0.0018,0.500573 0.190577,-0.03486 0.381983,-0.06546 0.571731,-0.104575 0.06939,-0.01431 -0.14241,0.04997 -0.210411,0.03008 -0.122666,-0.03588 -0.227697,-0.117478 -0.333498,-0.189175 -0.597961,-0.405211 -1.105436,-0.930006 -1.658175,-1.390303 -1.111479,-1.037399 -2.237221,-2.086453 -3.131031,-3.324078 -0.07004,-0.09698 -0.131604,-0.199817 -0.197405,-0.299726 0,0 -0.660743,0.391586 -0.660743,0.391586 z" />
    <circle
       id="path1008"
       style="fill:#99371a;stroke:#000000"
       cx="14.674947"
       cy="19.125441"
       r="0.026671756" />
    <path
       style="fill:#99371a;stroke:#000000"
       id="path1010"
       d="m 14.396857,19.089809 c -0.06909,0.214394 -0.14817,0.425445 -0.206839,0.64318 -0.01494,0.05544 -0.03229,0.110598 -0.04057,0.16742 -0.0084,0.05765 -0.0061,0.116345 -0.0092,0.174517 0.04665,0.249482 0.110014,0.579049 0.366322,0.704686 0.05251,0.02574 0.112031,0.03361 0.168046,0.05042 0.221813,0.0097 0.424268,-0.06311 0.612624,-0.176557 0.606417,-0.36524 0.745867,-0.374623 1.073104,-0.802332 0.01431,-0.03912 0.04222,-0.07572 0.04293,-0.117369 0.0032,-0.191322 -0.343893,-0.275663 -0.477029,-0.325138 -0.0566,-0.02103 -0.112962,-0.04273 -0.169443,-0.06409 -0.313372,-0.107159 -0.532396,-0.34 -0.738257,-0.586946 -0.892262,-0.631606 -0.992662,1.099958 -1.017844,1.429896 -0.0016,0.08083 -0.0031,0.161669 -0.0047,0.242503 0,0 0.681189,-0.346161 0.681189,-0.346161 v 0 c 1.44e-4,-0.07823 2.88e-4,-0.156456 4.31e-4,-0.234685 0.02214,-0.281698 0.04098,-0.570526 0.138768,-0.839025 0.02177,-0.05978 0.148993,-0.184374 0.08706,-0.169844 -0.872166,0.20461 -0.803925,0.215051 -0.554525,0.321046 0.221764,0.24715 0.443015,0.500301 0.766421,0.614411 0.158085,0.06098 0.321975,0.112403 0.475596,0.184288 0.03806,0.01781 0.112583,0.03852 0.101073,0.101706 -0.0063,0.03434 -0.02981,0.06312 -0.04472,0.09468 -0.03346,0.04118 -0.06435,0.0846 -0.100393,0.12354 -0.04481,0.04842 -0.204693,0.157957 -0.141778,0.138101 0.170916,-0.05394 0.316784,-0.168018 0.478878,-0.244488 0.06806,-0.03211 -0.128529,0.07885 -0.19645,0.111248 -0.06353,0.03031 -0.129068,0.05745 -0.196862,0.07638 -0.05774,0.01612 -0.11842,0.01879 -0.177631,0.02819 -0.04964,-0.0093 -0.101865,-0.0095 -0.148912,-0.02784 -0.24204,-0.09439 -0.299271,-0.412438 -0.331008,-0.633479 0.0049,-0.05418 0.0056,-0.108915 0.01481,-0.162538 0.04786,-0.279356 0.169266,-0.543543 0.266315,-0.807507 0,0 -0.717402,0.331788 -0.717402,0.331788 z" />
    <path
       style="fill:#99371a;stroke:#000000"
       id="path1012"
       d="m 34.106628,19.169336 c -0.378429,0.08313 -0.761292,0.165915 -1.12103,0.3139 -0.08945,0.0368 -0.179329,0.07442 -0.262161,0.124355 -0.291914,0.17598 -0.573663,0.368293 -0.860495,0.55244 -0.05373,0.07447 -0.115359,0.143818 -0.161174,0.223393 -0.165237,0.286992 -0.239976,0.639424 -0.09176,0.95023 0.03027,0.06347 0.07908,0.1163 0.118623,0.174449 0.0544,0.04467 0.103607,0.09656 0.16321,0.134012 0.380476,0.239081 0.861766,0.17322 1.279951,0.107868 0.08814,-0.02586 0.177878,-0.0468 0.264426,-0.07758 0.0781,-0.02777 0.156203,-0.05748 0.228648,-0.09776 0.22032,-0.122498 0.734418,-0.359037 0.98396,-0.627742 0.09838,-0.105929 0.117248,-0.157641 0.184302,-0.280415 0.114126,-0.311196 0.06491,-0.445357 -0.104303,-0.713084 -0.174791,-0.246991 -0.30764,-0.330852 -0.596127,-0.412393 -0.194364,-0.03831 -0.393417,-0.05473 -0.591368,-0.05997 -0.03803,-10e-4 -0.07982,-0.01624 -0.114123,2e-4 -0.264534,0.126779 -0.514084,0.282706 -0.771125,0.42406 -0.07908,0.116708 -0.143882,0.299734 -0.147086,0.44199 -0.0021,0.09243 0.02207,0.173881 0.04217,0.262746 0.07586,0.168737 0.169636,0.428269 0.351211,0.513621 0.03056,0.01437 0.06516,0.01776 0.09775,0.02665 0.415655,-0.0097 0.779105,-0.320731 1.096156,-0.540979 0.02276,-0.01581 0.02245,-0.05066 0.03368,-0.07599 0.0039,-0.02629 0.0078,-0.05258 0.01176,-0.07886 0,0 -0.712109,0.342284 -0.712109,0.342284 v 0 c -0.0068,0.01931 -0.01369,0.03861 -0.02053,0.05792 -0.181875,0.243367 -0.05515,0.05799 0.571219,-0.284493 0.02459,-0.01345 -0.04663,0.03135 -0.0716,0.04409 -0.08308,0.04243 -0.174398,0.0638 -0.264915,0.08322 -0.02703,-2.79e-4 -0.05485,0.0056 -0.0811,-8.36e-4 -0.15733,-0.03872 -0.271047,-0.32261 -0.322995,-0.45579 -0.0079,-0.03991 -0.01921,-0.07929 -0.02365,-0.119721 -0.0152,-0.138385 0.01833,-0.313909 0.101824,-0.428497 0.01946,-0.0267 0.04732,-0.04613 0.07098,-0.06919 -0.197982,0.106723 -0.405598,0.19724 -0.593948,0.320168 -0.03183,0.02077 0.07582,-0.0064 0.113823,-0.0068 0.194086,-0.0021 0.389334,0.01752 0.580856,0.04674 0.276729,0.06654 0.392734,0.130281 0.564169,0.363064 0.148378,0.236717 0.188254,0.368423 0.06947,0.635763 -0.07217,0.116838 -0.08662,0.155472 -0.188941,0.254717 -0.04517,0.04381 -0.203323,0.144773 -0.145218,0.120616 0.165706,-0.06889 0.319613,-0.163951 0.473103,-0.256931 0.149069,-0.0903 -0.647072,0.339523 -0.485478,0.194145 -0.395942,0.0714 -0.863121,0.150024 -1.233027,-0.06272 -0.05486,-0.03155 -0.10084,-0.07649 -0.151261,-0.114737 -0.03624,-0.05096 -0.08141,-0.09662 -0.108727,-0.152874 -0.140008,-0.28831 -0.04954,-0.624737 0.115538,-0.881013 0.048,-0.07452 0.111462,-0.137861 0.167193,-0.206792 -0.144535,0.06757 -0.285549,0.143258 -0.433605,0.202723 -0.09022,0.03623 0.170588,-0.09386 0.259645,-0.132855 0.346128,-0.151553 0.718165,-0.231051 1.085688,-0.309964 0,0 0.628509,-0.467351 0.628509,-0.467351 z" />
  </g>
</svg>
